<svg id="Layer_1" data-name="Layer 1" xmlns="http://www.w3.org/2000/svg" viewBox="0 0 266 205.52"><defs><style>.cls-1{fill:none;stroke:#b99969;stroke-miterlimit:10;stroke-width:9px;}.cls-2{font-size:28px;fill:#393c3d;font-family:Montserrat-Regular, Montserrat;letter-spacing:0.38em;}.cls-3{letter-spacing:0.4em;}.cls-4{font-family:Montserrat-Bold, Montserrat;font-weight:700;letter-spacing:0.4em;}</style></defs><title>logo</title><path class="cls-1" d="M61,4.5H93.88A32.11,32.11,0,0,1,126,36.61V69.5a0,0,0,0,1,0,0H93.11A32.11,32.11,0,0,1,61,37.39V4.5A0,0,0,0,1,61,4.5Z"/><line class="cls-1" x1="61.4" y1="4.7" x2="125.96" y2="69.26"/><line class="cls-1" x1="90.96" y1="32.27" x2="96.86" y2="7.7"/><line class="cls-1" x1="105.16" y1="48.96" x2="113.48" y2="14.29"/><path class="cls-1" d="M294.66,322.6h32.89a32.11,32.11,0,0,1,32.11,32.11V387.6a0,0,0,0,1,0,0H326.78a32.11,32.11,0,0,1-32.11-32.11V322.6A0,0,0,0,1,294.66,322.6Z" transform="translate(527.6 -290.16) rotate(90)"/><line class="cls-1" x1="204.52" y1="4.71" x2="139.96" y2="69.26"/><line class="cls-1" x1="177.96" y1="33.27" x2="202.52" y2="39.17"/><line class="cls-1" x1="162.27" y1="47.46" x2="196.93" y2="55.79"/><path class="cls-1" d="M294.66,400.6h32.89a32.11,32.11,0,0,1,32.11,32.11V465.6a0,0,0,0,1,0,0H326.78a32.11,32.11,0,0,1-32.11-32.11V400.6a0,0,0,0,1,0,0Z" transform="translate(499.66 548.1) rotate(-180)"/><line class="cls-1" x1="204.52" y1="147.17" x2="139.96" y2="82.61"/><line class="cls-1" x1="175.19" y1="118.46" x2="169.29" y2="143.02"/><line class="cls-1" x1="160.44" y1="103.32" x2="152.11" y2="137.99"/><path class="cls-1" d="M215.66,400.6h32.89a32.11,32.11,0,0,1,32.11,32.11V465.6a0,0,0,0,1,0,0H247.78a32.11,32.11,0,0,1-32.11-32.11V400.6A0,0,0,0,1,215.66,400.6Z" transform="translate(-339.6 363.16) rotate(-90)"/><line class="cls-1" x1="61.4" y1="147.17" x2="125.96" y2="82.61"/><line class="cls-1" x1="88.96" y1="116.89" x2="64.4" y2="110.99"/><line class="cls-1" x1="105.3" y1="100.75" x2="70.63" y2="92.42"/><text class="cls-2" transform="translate(0 198.07) scale(0.98 1)">W<tspan class="cls-3" x="41.89" y="0">EED</tspan><tspan class="cls-4" x="136.08" y="0">DRON</tspan></text></svg>